<svg width="251" height="479" viewBox="0 0 251 479" fill="none" xmlns="http://www.w3.org/2000/svg">
<path d="M2.40075 526.073C2.40075 526.073 33.3024 486.25 91.5536 505.07C149.805 523.89 179.889 537.041 205.418 498.878C222.902 473.142 208.785 446.343 199.061 437.719C189.338 429.096 182.303 424.542 155.818 409.182C131.61 395.176 99.5801 364.408 114.509 319.529C114.509 319.529 128.699 273.694 131.669 264.809C134.638 255.924 150.261 200.021 117.632 175.174C85.0032 150.327 41.7953 161.994 37.7074 127.166C34.4996 102.636 43.6621 109.618 40.7491 67.4853C40.7491 67.4853 36.442 20.5767 -10.3169 23.8094L-12.379 23.952C-59.1379 27.1848 -56.9486 74.2398 -56.9486 74.2398C-53.6979 113.158 -45.6996 112.213 -45.6672 132.93C-44.9232 167.989 -89.3256 162.379 -118.225 191.48C-147.124 220.581 -123.957 273.802 -119.793 282.194C-115.629 290.586 -104.384 314.727 -95.2655 334.032C-91.1302 342.818 -87.3004 363.385 -91.2794 380.347C-96.0382 400.611 -110.155 417.547 -123.9 428.521C-147.833 447.647 -156.491 453.621 -164.932 463.557C-173.321 473.432 -182.404 501.611 -161.545 524.696C-141 549.707 -112.381 547.336 -81.0792 534.365C-81.0792 534.365 -71.8514 530.143 -63.2741 531.902C-63.2741 531.902 -58.3252 533.016 -62.9812 536.137C-67.6411 539.203 -79.1572 546.775 -87.9486 551.639C-91.1289 553.427 -109.204 564.14 -131.398 566.291C-161.77 569.23 -197.953 552.917 -201.656 508.262C-201.656 508.262 -209.457 471.563 -144.154 424.713C-144.154 424.713 -110.236 400.977 -106.49 381.455C-102.744 361.932 -111.594 338.409 -116.899 325.672C-129.082 296.052 -154.162 270.234 -156.636 234.455C-156.636 234.455 -162.257 180.693 -81.8065 156.932C-81.8065 156.932 -52.089 149.389 -54.0462 133.229C-56.1324 116.014 -73.6808 91.4121 -75.6458 62.9889C-77.6109 34.5657 -52.333 3.30708 -14.8813 0.71779L-6.96736 0.170647C30.5401 -2.4225 59.7043 24.9602 61.6694 53.3834C63.6345 81.8065 48.4126 108.674 49.9415 125.928C51.3817 141.9 80.6995 145.585 80.6995 145.585C163.654 158.049 165.486 212.072 165.486 212.072C167.963 247.908 146.671 276.875 138.679 307.89C135.178 321.236 129.276 341.971 135.673 360.792C142.07 379.614 168.68 397.597 179.249 402.242C260.083 437.476 250.882 478.543 249.597 490.727C244.839 526.391 210.749 545.212 180.268 547.375C154.965 549.124 143.33 544.441 138.056 542.678C131.923 540.638 94.7419 527.697 74.9409 523.97C46.8566 518.688 8.15943 531.611 2.9746 532.753C2.9746 532.753 -4.4508 535.507 2.28544 526.025" fill="url(#paint0_linear_129_203)"/>
<defs>
<linearGradient id="paint0_linear_129_203" x1="-9.6265" y1="0.354492" x2="28.9162" y2="557.839" gradientUnits="userSpaceOnUse">
<stop offset="0.2" stop-color="#A66D35" stop-opacity="0.5"/>
<stop offset="0.45" stop-color="#A66D35" stop-opacity="0.45"/>
<stop offset="0.5" stop-color="#A66D35" stop-opacity="0.2"/>
</linearGradient>
</defs>
</svg>
